# Blender v2.91.0 OBJ File: ''
# www.blender.org
mtllib Diamond.mtl
o Cone
v 0.019762 0.429303 0.983505
v -0.019762 0.429304 0.983505
v -0.019744 0.397212 0.984313
v 0.019744 0.397212 0.984313
v 0.358113 0.429303 0.916203
v 0.358439 0.397212 0.916942
v 0.394922 0.397212 0.901830
v 0.394629 0.429303 0.901077
v 0.681469 0.429304 0.709417
v 0.682053 0.397212 0.709976
v 0.709976 0.397212 0.682053
v 0.709417 0.429303 0.681469
v 0.901077 0.429304 0.394629
v 0.901831 0.397212 0.394922
v 0.916942 0.397212 0.358439
v 0.916203 0.429304 0.358113
v 0.983505 0.429304 0.019762
v 0.984313 0.397212 0.019744
v 0.984313 0.397212 -0.019744
v 0.983505 0.429304 -0.019763
v 0.916203 0.429304 -0.358113
v 0.916942 0.397212 -0.358439
v 0.901830 0.397212 -0.394922
v 0.901077 0.429304 -0.394629
v 0.709417 0.429304 -0.681469
v 0.709976 0.397212 -0.682053
v 0.682053 0.397212 -0.709976
v 0.681469 0.429304 -0.709417
v 0.394629 0.429304 -0.901077
v 0.394922 0.397212 -0.901831
v 0.358439 0.397212 -0.916942
v 0.358113 0.429304 -0.916203
v 0.019763 0.429304 -0.983505
v 0.019744 0.397212 -0.984313
v -0.019744 0.397212 -0.984313
v -0.019762 0.429304 -0.983505
v -0.358113 0.429304 -0.916203
v -0.358439 0.397212 -0.916942
v -0.394921 0.397212 -0.901831
v -0.394629 0.429304 -0.901077
v -0.681468 0.429304 -0.709417
v -0.682053 0.397212 -0.709976
v -0.709975 0.397212 -0.682053
v -0.709417 0.429304 -0.681469
v -0.901077 0.429304 -0.394629
v -0.901831 0.397212 -0.394922
v -0.916942 0.397212 -0.358439
v -0.916203 0.429304 -0.358113
v -0.983505 0.429304 -0.019762
v -0.984313 0.397212 -0.019744
v -0.984313 0.397212 0.019744
v -0.983505 0.429304 0.019762
v -0.916202 0.429304 0.358113
v -0.916942 0.397212 0.358439
v -0.901830 0.397212 0.394922
v -0.901077 0.429304 0.394629
v -0.709417 0.429304 0.681469
v -0.709975 0.397212 0.682053
v -0.682053 0.397212 0.709976
v -0.681468 0.429303 0.709417
v -0.394629 0.429304 0.901077
v -0.394921 0.397212 0.901831
v -0.358438 0.397212 0.916942
v -0.358112 0.429303 0.916203
v -0.019744 -0.832479 0.099261
v -0.056227 -0.832480 0.084150
v -0.084150 -0.832480 0.056227
v -0.099261 -0.832480 0.019744
v -0.099261 -0.832480 -0.019745
v -0.084150 -0.832480 -0.056227
v -0.056227 -0.832480 -0.084150
v -0.019744 -0.832480 -0.099262
v 0.019744 -0.832480 -0.099262
v 0.056227 -0.832480 -0.084150
v 0.084150 -0.832480 -0.056227
v 0.099262 -0.832480 -0.019745
v 0.099262 -0.832480 0.019744
v 0.084150 -0.832480 0.056227
v 0.056227 -0.832480 0.084150
v 0.019744 -0.832480 0.099261
v 0.019762 0.691072 0.774718
v 0.000000 0.706825 0.745692
v -0.019762 0.691072 0.774718
v 0.278213 0.691072 0.723309
v 0.314730 0.691072 0.708183
v 0.285364 0.706825 0.688930
v 0.533834 0.691072 0.561782
v 0.561782 0.691072 0.533834
v 0.527284 0.706825 0.527284
v 0.708183 0.691072 0.314730
v 0.723309 0.691072 0.278213
v 0.688930 0.706825 0.285364
v 0.774718 0.691072 0.019762
v 0.774718 0.691072 -0.019763
v 0.745692 0.706825 -0.000000
v 0.723309 0.691072 -0.278214
v 0.708183 0.691072 -0.314730
v 0.688930 0.706825 -0.285364
v 0.561782 0.691072 -0.533834
v 0.533834 0.691072 -0.561782
v 0.527284 0.706825 -0.527284
v 0.314730 0.691072 -0.708183
v 0.278214 0.691072 -0.723309
v 0.285364 0.706825 -0.688930
v 0.019763 0.691072 -0.774718
v -0.019762 0.691072 -0.774718
v 0.000000 0.706825 -0.745692
v -0.278213 0.691072 -0.723309
v -0.314730 0.691072 -0.708183
v -0.285364 0.706825 -0.688930
v -0.533834 0.691072 -0.561782
v -0.561782 0.691072 -0.533834
v -0.527284 0.706825 -0.527284
v -0.708183 0.691072 -0.314730
v -0.723309 0.691072 -0.278214
v -0.688930 0.706825 -0.285364
v -0.774718 0.691072 -0.019762
v -0.774718 0.691072 0.019763
v -0.745692 0.706825 0.000000
v -0.723308 0.691072 0.278214
v -0.708183 0.691072 0.314730
v -0.688930 0.706825 0.285364
v -0.561782 0.691072 0.533834
v -0.533834 0.691072 0.561782
v -0.527284 0.706825 0.527284
v -0.314729 0.691072 0.708183
v -0.278213 0.691072 0.723309
v -0.285364 0.706825 0.688930
vt 0.163975 0.470066
vt 0.245261 0.273823
vt 0.245261 0.486235
vt 0.346041 0.468927
vt 0.415509 0.422510
vt 0.414740 0.423024
vt 0.346810 0.468413
vt 0.422510 0.415509
vt 0.468927 0.346041
vt 0.468413 0.346810
vt 0.423024 0.414740
vt 0.472716 0.336893
vt 0.489015 0.254951
vt 0.488835 0.255858
vt 0.472896 0.335986
vt 0.489015 0.245049
vt 0.472716 0.163107
vt 0.472896 0.164014
vt 0.488835 0.244142
vt 0.468927 0.153959
vt 0.422510 0.084491
vt 0.423024 0.085260
vt 0.468413 0.153190
vt 0.415509 0.077490
vt 0.346041 0.031073
vt 0.346810 0.031587
vt 0.414740 0.076976
vt 0.336893 0.027284
vt 0.254951 0.010985
vt 0.255858 0.011165
vt 0.335986 0.027104
vt 0.245049 0.010985
vt 0.163107 0.027284
vt 0.164014 0.027104
vt 0.244142 0.011165
vt 0.153959 0.031073
vt 0.084491 0.077490
vt 0.085260 0.076976
vt 0.153190 0.031587
vt 0.077490 0.084491
vt 0.031073 0.153959
vt 0.031587 0.153190
vt 0.076976 0.085260
vt 0.027284 0.163107
vt 0.010985 0.245049
vt 0.011165 0.244142
vt 0.027104 0.164014
vt 0.010985 0.254951
vt 0.027284 0.336893
vt 0.027104 0.335986
vt 0.011165 0.255858
vt 0.031073 0.346041
vt 0.077490 0.415509
vt 0.076976 0.414740
vt 0.031587 0.346810
vt 0.750000 0.483612
vt 0.839399 0.465829
vt 0.915189 0.415188
vt 0.965829 0.339399
vt 0.983612 0.250000
vt 0.965829 0.160601
vt 0.915188 0.084812
vt 0.839399 0.034171
vt 0.750000 0.016388
vt 0.660601 0.034171
vt 0.584812 0.084812
vt 0.534171 0.160601
vt 0.516388 0.250000
vt 0.534171 0.339399
vt 0.584812 0.415188
vt 0.660601 0.465829
vt 0.084491 0.422510
vt 0.153959 0.468927
vt 0.153190 0.468413
vt 0.085260 0.423024
vt 0.163107 0.472716
vt 0.245049 0.489015
vt 0.244142 0.488835
vt 0.164014 0.472896
vt 0.486235 0.245261
vt 0.273823 0.245261
vt 0.470066 0.163975
vt 0.254739 0.486235
vt 0.254739 0.273823
vt 0.336025 0.470066
vt 0.245261 0.013765
vt 0.245261 0.226177
vt 0.163975 0.029934
vt 0.013765 0.254739
vt 0.226177 0.254739
vt 0.029934 0.336025
vt 0.344781 0.466439
vt 0.263495 0.270196
vt 0.413693 0.420394
vt 0.466439 0.155219
vt 0.270196 0.236505
vt 0.420394 0.086307
vt 0.155219 0.033561
vt 0.236505 0.229804
vt 0.086307 0.079606
vt 0.033561 0.344781
vt 0.229804 0.263495
vt 0.079606 0.413693
vt 0.420394 0.413693
vt 0.270196 0.263495
vt 0.466439 0.344781
vt 0.413693 0.079606
vt 0.263494 0.229804
vt 0.344781 0.033561
vt 0.079606 0.086307
vt 0.229804 0.236505
vt 0.033561 0.155219
vt 0.086307 0.420394
vt 0.236506 0.270196
vt 0.155219 0.466439
vt 0.470066 0.336025
vt 0.273823 0.254739
vt 0.486235 0.254739
vt 0.336025 0.029934
vt 0.254739 0.226177
vt 0.254739 0.013765
vt 0.029934 0.163975
vt 0.226177 0.245261
vt 0.013765 0.245261
vt 0.254951 0.489015
vt 0.336893 0.472716
vt 0.255208 0.491036
vt 0.248778 0.489757
vt 0.244562 0.488918
vt 0.335986 0.472896
vt 0.341844 0.471731
vt 0.340622 0.471974
vt 0.419706 0.419706
vt 0.418669 0.420398
vt 0.471731 0.341844
vt 0.471039 0.342880
vt 0.490000 0.250000
vt 0.489757 0.251222
vt 0.474681 0.162571
vt 0.471731 0.158156
vt 0.471039 0.157120
vt 0.424121 0.083245
vt 0.415095 0.077214
vt 0.418669 0.079602
vt 0.347052 0.029305
vt 0.336406 0.027187
vt 0.340622 0.028026
vt 0.255208 0.008964
vt 0.250000 0.010000
vt 0.248778 0.010243
vt 0.158156 0.028269
vt 0.159378 0.028026
vt 0.083245 0.075879
vt 0.077214 0.084904
vt 0.079602 0.081331
vt 0.029305 0.152948
vt 0.028269 0.158156
vt 0.028026 0.159378
vt 0.010000 0.250000
vt 0.010243 0.248778
vt 0.025319 0.337429
vt 0.028269 0.341844
vt 0.028961 0.342880
vt 0.080294 0.419706
vt 0.079602 0.418669
vt 0.158156 0.471731
vt 0.157120 0.471039
vt 0.255858 0.488835
vt 0.251222 0.489757
vt 0.342880 0.471039
vt 0.420398 0.418669
vt 0.471974 0.340622
vt 0.471974 0.159378
vt 0.489757 0.248778
vt 0.420398 0.081331
vt 0.342880 0.028961
vt 0.251222 0.010243
vt 0.081331 0.079602
vt 0.157120 0.028961
vt 0.028961 0.157120
vt 0.028026 0.340622
vt 0.010243 0.251222
vt 0.081331 0.420398
vt 0.159378 0.471974
vn -0.1594 -0.5767 0.8013
vn 0.4376 0.6161 0.6549
vn 0.6549 0.6161 0.4376
vn 0.7725 0.6161 0.1537
vn 0.7725 0.6161 -0.1537
vn 0.6549 0.6161 -0.4376
vn 0.4376 0.6161 -0.6549
vn 0.1537 0.6161 -0.7725
vn -0.1537 0.6161 -0.7725
vn -0.4376 0.6161 -0.6549
vn -0.6549 0.6161 -0.4376
vn -0.7725 0.6161 -0.1537
vn -0.7725 0.6161 0.1537
vn -0.6549 0.6161 0.4376
vn -0.0000 1.0000 0.0000
vn -0.4376 0.6161 0.6549
vn -0.1537 0.6161 0.7725
vn 0.8013 -0.5767 -0.1594
vn 0.1594 -0.5767 0.8013
vn -0.1594 -0.5767 -0.8013
vn -0.8013 -0.5767 0.1594
vn 0.4539 -0.5767 0.6793
vn 0.6793 -0.5767 -0.4539
vn -0.4539 -0.5767 -0.6793
vn -0.6793 -0.5767 0.4539
vn 0.6793 -0.5767 0.4539
vn 0.4539 -0.5767 -0.6793
vn -0.6793 -0.5767 -0.4539
vn -0.4539 -0.5767 0.6793
vn 0.8013 -0.5767 0.1594
vn 0.1594 -0.5767 -0.8013
vn -0.8013 -0.5767 -0.1594
vn 0.0000 0.0252 0.9997
vn 0.3826 0.0252 0.9236
vn 0.7069 0.0252 0.7069
vn 0.9236 0.0252 0.3826
vn 0.9997 0.0252 0.0000
vn 0.9236 0.0252 -0.3826
vn 0.7069 0.0252 -0.7069
vn 0.3826 0.0252 -0.9236
vn 0.0000 0.0252 -0.9997
vn -0.3826 0.0252 -0.9236
vn -0.7069 0.0252 -0.7069
vn -0.9236 0.0252 -0.3826
vn -0.9997 0.0252 0.0000
vn -0.9236 0.0252 0.3826
vn -0.7069 0.0252 0.7069
vn -0.3826 0.0252 0.9236
vn 0.0000 -1.0000 -0.0000
vn 0.0000 0.8789 0.4770
vn 0.1825 0.8789 0.4407
vn 0.3373 0.8789 0.3373
vn 0.4407 0.8789 0.1825
vn 0.4770 0.8789 0.0000
vn 0.4407 0.8789 -0.1825
vn 0.3373 0.8789 -0.3373
vn 0.1825 0.8789 -0.4407
vn 0.0000 0.8789 -0.4770
vn -0.1825 0.8789 -0.4407
vn -0.3373 0.8789 -0.3373
vn -0.4407 0.8789 -0.1825
vn -0.4770 0.8789 0.0000
vn -0.4407 0.8789 0.1825
vn -0.3373 0.8789 0.3373
vn -0.1825 0.8789 0.4407
vn 0.1950 0.0246 0.9805
vn -0.0000 -0.5842 0.8116
vn 0.3106 -0.5842 0.7499
vn 0.5554 0.0246 0.8312
vn 0.5739 -0.5842 0.5739
vn 0.8312 0.0246 0.5554
vn 0.7499 -0.5842 0.3106
vn 0.9805 0.0246 0.1950
vn 0.8116 -0.5842 0.0000
vn 0.9805 0.0246 -0.1950
vn 0.7499 -0.5842 -0.3106
vn 0.8312 0.0246 -0.5554
vn 0.5739 -0.5842 -0.5739
vn 0.5554 0.0246 -0.8312
vn 0.3106 -0.5842 -0.7499
vn 0.1950 0.0246 -0.9805
vn 0.0000 -0.5842 -0.8116
vn -0.1950 0.0246 -0.9805
vn -0.3106 -0.5842 -0.7499
vn -0.5554 0.0246 -0.8312
vn -0.5739 -0.5842 -0.5739
vn -0.8312 0.0246 -0.5554
vn -0.7499 -0.5842 -0.3106
vn -0.9805 0.0246 -0.1950
vn -0.8116 -0.5842 0.0000
vn -0.9805 0.0246 0.1950
vn -0.7499 -0.5842 0.3106
vn -0.8312 0.0246 0.5554
vn -0.5739 -0.5842 0.5739
vn -0.5554 0.0246 0.8312
vn -0.3106 -0.5842 0.7499
vn -0.1950 0.0246 0.9805
vn 0.0855 0.8989 0.4297
vn 0.2434 0.8989 0.3643
vn 0.3643 0.8989 0.2434
vn 0.4297 0.8989 0.0855
vn 0.4297 0.8989 -0.0855
vn 0.3643 0.8989 -0.2434
vn 0.2434 0.8989 -0.3643
vn 0.0855 0.8989 -0.4297
vn -0.0855 0.8989 -0.4297
vn -0.2434 0.8989 -0.3643
vn -0.3643 0.8989 -0.2434
vn -0.4297 0.8989 -0.0855
vn -0.4297 0.8989 0.0855
vn -0.3643 0.8989 0.2434
vn -0.2434 0.8989 0.3643
vn -0.0855 0.8989 0.4297
vn -0.2992 0.6236 0.7223
vn -0.5528 0.6236 0.5528
vn 0.7818 0.6236 -0.0000
vn 0.7223 0.6236 0.2992
vn 0.2992 0.6236 0.7223
vn 0.0000 0.6236 0.7818
vn 0.0000 0.6236 -0.7818
vn 0.2992 0.6236 -0.7223
vn -0.7818 0.6236 0.0000
vn -0.7223 0.6236 -0.2992
vn 0.7223 0.6236 -0.2992
vn -0.2992 0.6236 -0.7223
vn -0.7223 0.6236 0.2992
vn 0.5528 0.6236 0.5528
vn 0.5528 0.6236 -0.5528
vn -0.5528 0.6236 -0.5528
vn 0.1537 0.6161 0.7725
usemtl None
s off
f 63/1/1 65/2/1 3/3/1
f 8/4/2 9/5/2 87/6/2 85/7/2
f 12/8/3 13/9/3 90/10/3 88/11/3
f 16/12/4 17/13/4 93/14/4 91/15/4
f 20/16/5 21/17/5 96/18/5 94/19/5
f 24/20/6 25/21/6 99/22/6 97/23/6
f 28/24/7 29/25/7 102/26/7 100/27/7
f 32/28/8 33/29/8 105/30/8 103/31/8
f 36/32/9 37/33/9 108/34/9 106/35/9
f 40/36/10 41/37/10 111/38/10 109/39/10
f 44/40/11 45/41/11 114/42/11 112/43/11
f 48/44/12 49/45/12 117/46/12 115/47/12
f 52/48/13 53/49/13 120/50/13 118/51/13
f 56/52/14 57/53/14 123/54/14 121/55/14
f 82/56/15 86/57/15 89/58/15 92/59/15 95/60/15 98/61/15 101/62/15 104/63/15 107/64/15 110/65/15 113/66/15 116/67/15 119/68/15 122/69/15 125/70/15 128/71/15
f 60/72/16 61/73/16 126/74/16 124/75/16
f 64/76/17 2/77/17 83/78/17 127/79/17
f 19/80/18 76/81/18 22/82/18
f 4/83/19 80/84/19 6/85/19
f 35/86/20 72/87/20 38/88/20
f 51/89/21 68/90/21 54/91/21
f 7/92/22 79/93/22 10/94/22
f 23/95/23 75/96/23 26/97/23
f 39/98/24 71/99/24 42/100/24
f 55/101/25 67/102/25 58/103/25
f 11/104/26 78/105/26 14/106/26
f 27/107/27 74/108/27 30/109/27
f 43/110/28 70/111/28 46/112/28
f 59/113/29 66/114/29 62/115/29
f 15/116/30 77/117/30 18/118/30
f 31/119/31 73/120/31 34/121/31
f 47/122/32 69/123/32 50/124/32
f 1/125/33 2/77/33 3/3/33 4/83/33
f 5/126/34 6/85/34 7/92/34 8/4/34
f 9/5/35 10/94/35 11/104/35 12/8/35
f 13/9/36 14/106/36 15/116/36 16/12/36
f 17/13/37 18/118/37 19/80/37 20/16/37
f 21/17/38 22/82/38 23/95/38 24/20/38
f 25/21/39 26/97/39 27/107/39 28/24/39
f 29/25/40 30/109/40 31/119/40 32/28/40
f 33/29/41 34/121/41 35/86/41 36/32/41
f 37/33/42 38/88/42 39/98/42 40/36/42
f 41/37/43 42/100/43 43/110/43 44/40/43
f 45/41/44 46/112/44 47/122/44 48/44/44
f 49/45/45 50/124/45 51/89/45 52/48/45
f 53/49/46 54/91/46 55/101/46 56/52/46
f 57/53/47 58/103/47 59/113/47 60/72/47
f 61/73/48 62/115/48 63/1/48 64/76/48
f 65/2/49 66/114/49 67/102/49 68/90/49 69/123/49 70/111/49 71/99/49 72/87/49 73/120/49 74/108/49 75/96/49 76/81/49 77/117/49 78/105/49 79/93/49 80/84/49
f 81/127/50 82/128/50 83/129/50
f 84/130/51 85/131/51 86/132/51
f 87/6/52 88/133/52 89/134/52
f 90/10/53 91/135/53 92/136/53
f 93/14/54 94/137/54 95/138/54
f 96/139/55 97/140/55 98/141/55
f 99/142/56 100/143/56 101/144/56
f 102/145/57 103/146/57 104/147/57
f 105/148/58 106/149/58 107/150/58
f 108/34/59 109/151/59 110/152/59
f 111/153/60 112/154/60 113/155/60
f 114/156/61 115/157/61 116/158/61
f 117/46/62 118/159/62 119/160/62
f 120/161/63 121/162/63 122/163/63
f 123/54/64 124/164/64 125/165/64
f 126/74/65 127/166/65 128/167/65
f 4/83/66 6/85/66 5/126/66 1/125/66
f 3/3/67 65/2/67 80/84/67 4/83/67
f 79/93/68 7/92/68 6/85/68 80/84/68
f 7/92/69 10/94/69 9/5/69 8/4/69
f 78/105/70 11/104/70 10/94/70 79/93/70
f 11/104/71 14/106/71 13/9/71 12/8/71
f 77/117/72 15/116/72 14/106/72 78/105/72
f 15/116/73 18/118/73 17/13/73 16/12/73
f 76/81/74 19/80/74 18/118/74 77/117/74
f 19/80/75 22/82/75 21/17/75 20/16/75
f 75/96/76 23/95/76 22/82/76 76/81/76
f 23/95/77 26/97/77 25/21/77 24/20/77
f 74/108/78 27/107/78 26/97/78 75/96/78
f 27/107/79 30/109/79 29/25/79 28/24/79
f 73/120/80 31/119/80 30/109/80 74/108/80
f 31/119/81 34/121/81 33/29/81 32/28/81
f 72/87/82 35/86/82 34/121/82 73/120/82
f 35/86/83 38/88/83 37/33/83 36/32/83
f 71/99/84 39/98/84 38/88/84 72/87/84
f 39/98/85 42/100/85 41/37/85 40/36/85
f 70/111/86 43/110/86 42/100/86 71/99/86
f 43/110/87 46/112/87 45/41/87 44/40/87
f 69/123/88 47/122/88 46/112/88 70/111/88
f 47/122/89 50/124/89 49/45/89 48/44/89
f 68/90/90 51/89/90 50/124/90 69/123/90
f 51/89/91 54/91/91 53/49/91 52/48/91
f 67/102/92 55/101/92 54/91/92 68/90/92
f 55/101/93 58/103/93 57/53/93 56/52/93
f 66/114/94 59/113/94 58/103/94 67/102/94
f 59/113/95 62/115/95 61/73/95 60/72/95
f 65/2/96 63/1/96 62/115/96 66/114/96
f 63/1/97 3/3/97 2/77/97 64/76/97
f 81/168/98 84/130/98 86/132/98 82/169/98
f 85/7/99 87/6/99 89/134/99 86/170/99
f 88/11/100 90/10/100 92/136/100 89/171/100
f 91/15/101 93/14/101 95/138/101 92/172/101
f 94/19/102 96/18/102 98/173/102 95/174/102
f 97/23/103 99/22/103 101/175/103 98/141/103
f 100/27/104 102/26/104 104/176/104 101/144/104
f 103/31/105 105/30/105 107/177/105 104/147/105
f 106/35/106 108/34/106 110/152/106 107/150/106
f 109/39/107 111/38/107 113/178/107 110/179/107
f 112/43/108 114/42/108 116/180/108 113/155/108
f 115/47/109 117/46/109 119/160/109 116/158/109
f 118/51/110 120/50/110 122/181/110 119/182/110
f 121/55/111 123/54/111 125/165/111 122/163/111
f 124/75/112 126/74/112 128/167/112 125/183/112
f 127/79/113 83/78/113 82/128/113 128/184/113
f 64/76/114 127/79/114 126/74/114 61/73/114
f 123/54/115 57/53/115 60/72/115 124/75/115
f 20/16/116 94/19/116 93/14/116 17/13/116
f 90/10/117 13/9/117 16/12/117 91/15/117
f 8/4/118 85/7/118 84/130/118 5/126/118
f 83/78/119 2/77/119 1/125/119 81/168/119
f 36/32/120 106/35/120 105/30/120 33/29/120
f 102/26/121 29/25/121 32/28/121 103/31/121
f 52/48/122 118/51/122 117/46/122 49/45/122
f 114/42/123 45/41/123 48/44/123 115/47/123
f 24/20/124 97/23/124 96/18/124 21/17/124
f 40/36/125 109/39/125 108/34/125 37/33/125
f 56/52/126 121/55/126 120/50/126 53/49/126
f 12/8/127 88/11/127 87/6/127 9/5/127
f 28/24/128 100/27/128 99/22/128 25/21/128
f 44/40/129 112/43/129 111/38/129 41/37/129
f 1/125/130 5/126/130 84/130/130 81/168/130
