# Blender v2.91.0 OBJ File: 'Helicopter.blend'
# www.blender.org
mtllib helicopter.mtl
o Helicopter_Cylinder
v 0.000000 1.089696 1.541478
v 0.000000 1.240196 1.541478
v 0.047819 1.089696 1.546187
v 0.047819 1.240196 1.546187
v 0.093800 1.089696 1.560136
v 0.093800 1.240196 1.560136
v 0.136177 1.089696 1.582786
v 0.136177 1.240196 1.582786
v 0.173321 1.089696 1.613269
v 0.173321 1.240196 1.613269
v 0.203803 1.089696 1.650413
v 0.203803 1.240196 1.650413
v 0.226454 1.089696 1.692789
v 0.226454 1.240196 1.692789
v 0.240402 1.089696 1.738771
v 0.240402 1.240196 1.738771
v 0.245112 1.089696 1.786590
v 0.245112 1.240196 1.786590
v 0.240402 1.089696 1.834409
v 0.240402 1.240196 1.834409
v 0.226454 1.089696 1.880390
v 0.226454 1.240196 1.880390
v 0.203803 1.089696 1.922767
v 0.203803 1.240196 1.922767
v 0.173321 1.089696 1.959910
v 0.173321 1.240196 1.959910
v 0.136177 1.089696 1.990393
v 0.136177 1.240196 1.990393
v 0.093800 1.089696 2.013044
v 0.093800 1.240196 2.013044
v 0.047819 1.089696 2.026992
v 0.047819 1.240196 2.026992
v -0.000000 1.089696 2.031702
v -0.000000 1.240196 2.031702
v -0.047819 1.089696 2.026992
v -0.047819 1.240196 2.026992
v -0.093800 1.089696 2.013044
v -0.093800 1.240196 2.013044
v -0.136177 1.089696 1.990393
v -0.136177 1.240196 1.990393
v -0.173321 1.089696 1.959910
v -0.173321 1.240196 1.959910
v -0.203803 1.089696 1.922767
v -0.203803 1.240196 1.922767
v -0.226454 1.089696 1.880390
v -0.226454 1.240196 1.880390
v -0.240402 1.089696 1.834409
v -0.240402 1.240196 1.834409
v -0.245112 1.089696 1.786590
v -0.245112 1.240196 1.786590
v -0.240402 1.089696 1.738770
v -0.240402 1.240196 1.738770
v -0.226454 1.089696 1.692789
v -0.226454 1.240196 1.692789
v -0.203803 1.089696 1.650413
v -0.203803 1.240196 1.650413
v -0.173320 1.089696 1.613269
v -0.173320 1.240196 1.613269
v -0.136177 1.089696 1.582786
v -0.136177 1.240196 1.582786
v -0.093800 1.089696 1.560136
v -0.093800 1.240196 1.560136
v -0.047819 1.089696 1.546187
v -0.047819 1.240196 1.546187
v 0.035186 1.320786 1.609699
v 0.000000 1.320786 1.606234
v 0.069019 1.320786 1.619962
v 0.100201 1.320786 1.636629
v 0.127531 1.320786 1.659059
v 0.149961 1.320786 1.686389
v 0.166627 1.320786 1.717570
v 0.176891 1.320786 1.751404
v 0.180356 1.320786 1.786590
v 0.176891 1.320786 1.821775
v 0.166627 1.320786 1.855609
v 0.149961 1.320786 1.886790
v 0.127531 1.320786 1.914121
v 0.100201 1.320786 1.936550
v 0.069019 1.320786 1.953217
v 0.035186 1.320786 1.963480
v -0.000000 1.320786 1.966946
v -0.035186 1.320786 1.963480
v -0.069019 1.320786 1.953217
v -0.100201 1.320786 1.936550
v -0.127531 1.320786 1.914121
v -0.149961 1.320786 1.886790
v -0.166627 1.320786 1.855609
v -0.176891 1.320786 1.821775
v -0.180356 1.320786 1.786590
v -0.176891 1.320786 1.751404
v -0.166627 1.320786 1.717570
v -0.149960 1.320786 1.686389
v -0.127531 1.320786 1.659059
v -0.100200 1.320786 1.636629
v -0.069019 1.320786 1.619962
v -0.035185 1.320786 1.609699
v 0.035186 1.501749 1.609699
v 0.000000 1.501749 1.606234
v 0.069019 1.501749 1.619962
v 0.100201 1.501749 1.636629
v 0.127531 1.501749 1.659059
v 0.149961 1.501749 1.686389
v 0.166627 1.501749 1.717570
v 0.176891 1.501749 1.751404
v 0.180356 1.501749 1.786590
v 0.176891 1.501749 1.821775
v 0.166627 1.501749 1.855609
v 0.149961 1.501749 1.886790
v 0.127531 1.501749 1.914121
v 0.100201 1.501749 1.936550
v 0.069019 1.501749 1.953217
v 0.035186 1.501749 1.963480
v -0.000000 1.501749 1.966946
v -0.035186 1.501749 1.963480
v -0.069019 1.501749 1.953217
v -0.100201 1.501749 1.936550
v -0.127531 1.501749 1.914121
v -0.149961 1.501749 1.886790
v -0.166627 1.501749 1.855609
v -0.176891 1.501749 1.821775
v -0.180356 1.501749 1.786590
v -0.176891 1.501749 1.751404
v -0.166627 1.501749 1.717570
v -0.149960 1.501749 1.686389
v -0.127531 1.501749 1.659059
v -0.100200 1.501749 1.636629
v -0.069019 1.501749 1.619962
v -0.035185 1.501749 1.609699
v 0.048397 1.569519 1.543283
v 0.000000 1.569519 1.538516
v 0.094934 1.569519 1.557400
v 0.137822 1.569519 1.580324
v 0.175415 1.569519 1.611175
v 0.206266 1.569519 1.648767
v 0.229190 1.569519 1.691656
v 0.243307 1.569519 1.738193
v 0.248074 1.569519 1.786590
v 0.243307 1.569519 1.834986
v 0.229190 1.569519 1.881523
v 0.206266 1.569519 1.924412
v 0.175415 1.569519 1.962004
v 0.137822 1.569519 1.992855
v 0.094934 1.569519 2.015780
v 0.048397 1.569519 2.029897
v -0.000000 1.569519 2.034663
v -0.048397 1.569519 2.029897
v -0.094934 1.569519 2.015780
v -0.137822 1.569519 1.992855
v -0.175415 1.569519 1.962004
v -0.206266 1.569519 1.924412
v -0.229190 1.569519 1.881523
v -0.243307 1.569519 1.834986
v -0.248074 1.569519 1.786590
v -0.243307 1.569519 1.738193
v -0.229190 1.569519 1.691656
v -0.206265 1.569519 1.648767
v -0.175414 1.569519 1.611175
v -0.137822 1.569519 1.580324
v -0.094933 1.569519 1.557400
v -0.048396 1.569519 1.543283
v 0.048397 1.745353 1.543283
v 0.000000 1.745353 1.538516
v 0.094934 1.745353 1.557400
v 0.137822 1.745353 1.580324
v 0.175415 1.745353 1.611175
v 0.206266 1.745353 1.648767
v 0.229190 1.745353 1.691656
v 0.243307 1.745353 1.738193
v 0.248074 1.745353 1.786590
v 0.243307 1.745353 1.834986
v 0.229190 1.745353 1.881523
v 0.206266 1.745353 1.924412
v 0.175415 1.745353 1.962004
v 0.137822 1.745353 1.992855
v 0.094934 1.745353 2.015780
v 0.048397 1.745353 2.029897
v -0.000000 1.745353 2.034663
v -0.048397 1.745353 2.029897
v -0.094934 1.745353 2.015780
v -0.137822 1.745353 1.992855
v -0.175415 1.745353 1.962004
v -0.206266 1.745353 1.924412
v -0.229190 1.745353 1.881523
v -0.243307 1.745353 1.834986
v -0.248074 1.745353 1.786590
v -0.243307 1.745353 1.738193
v -0.229190 1.745353 1.691656
v -0.206265 1.745353 1.648767
v -0.175414 1.745353 1.611175
v -0.137822 1.745353 1.580324
v -0.094933 1.745353 1.557400
v -0.048396 1.745353 1.543283
v -0.282082 1.336091 2.126583
v -0.282082 1.448852 2.126583
v -0.282082 1.336091 1.562418
v -0.282082 1.448852 1.562418
v 0.282082 1.336091 2.126583
v 0.282082 1.448852 2.126583
v 0.282082 1.336091 1.562418
v 0.282082 1.448852 1.562418
v -0.191386 1.336091 1.403594
v -0.191386 1.448852 1.403594
v -0.191386 1.448852 2.285407
v -0.191386 1.336091 2.285407
v 0.191386 1.336091 2.285407
v 0.191386 1.448852 2.285407
v 0.191386 1.448852 1.403594
v 0.191386 1.336091 1.403594
v -0.056665 1.451368 -3.371213
v 0.064608 1.342485 -3.371213
v 0.056665 1.333638 -3.371213
v -0.064608 1.442521 -3.371213
v -0.057601 1.334554 7.060217
v -0.065402 1.343528 7.060217
v 0.057601 1.450452 7.060217
v 0.065402 1.441479 7.060217
v -0.417821 1.338750 1.644012
v -0.417821 1.338750 2.044989
v -0.417821 1.451511 2.044989
v -0.417821 1.451511 1.644012
v 0.417821 1.451511 1.644012
v 0.417821 1.338750 1.644012
v 0.417821 1.338750 2.044989
v 0.417821 1.451511 2.044989
v -5.399782 1.343986 1.802293
v -5.399782 1.429810 1.901022
v -5.399782 1.446276 1.886708
v -5.399782 1.360453 1.787979
v 5.399782 1.446276 1.802293
v 5.399782 1.429810 1.787979
v 5.399782 1.343986 1.886708
v 5.399782 1.360453 1.901022
v 0.949646 0.829552 4.540967
v 1.000000 -1.051950 4.586543
v 0.141172 -0.346315 5.875553
v 0.141172 -0.641763 5.843649
v -0.949646 0.829552 4.540967
v -1.000000 -1.051950 4.586543
v -0.141172 -0.346315 5.875553
v -0.141172 -0.641763 5.843649
v 0.949646 0.897061 3.009199
v 1.000000 -1.093823 2.857885
v -0.949646 0.897061 3.009199
v -1.000000 -1.093823 2.857885
v 0.368435 0.230303 0.590630
v 0.368435 -0.688628 0.570576
v -0.368435 0.230303 0.590630
v -0.368435 -0.688628 0.570576
v 0.122648 0.326621 -5.797125
v 0.122648 0.200936 -5.789833
v -0.122648 0.326621 -5.797125
v -0.122648 0.200936 -5.789833
v 0.122648 0.324147 -5.899257
v 0.122648 0.198462 -5.891964
v -0.122648 0.324147 -5.899257
v -0.122648 0.198462 -5.891964
v -0.867889 -0.846857 5.215096
v 0.696043 0.241618 5.208260
v -0.696043 0.241618 5.208260
v 0.867889 -0.846857 5.215096
v -0.552387 0.907120 3.006426
v 0.552387 0.907120 3.006426
v -0.214310 0.240361 0.587857
v 0.214310 0.240361 0.587857
v -0.552387 1.136606 2.819215
v 0.552387 1.136606 2.819215
v -0.214310 1.167164 0.751584
v 0.214310 1.167164 0.751584
v 0.610917 -1.053780 3.303473
v 0.610917 -1.053780 3.151778
v 0.720540 -1.053780 3.303473
v 0.720540 -1.053780 3.151778
v 0.685364 -1.582373 3.151778
v 0.685364 -1.582373 3.303473
v 0.794987 -1.582373 3.151778
v 0.794987 -1.582373 3.303473
v 0.685364 -1.693149 3.151778
v 0.685364 -1.693149 3.303473
v 0.794987 -1.693149 3.151778
v 0.794987 -1.693149 3.303473
v 0.794987 -1.582373 1.692917
v 0.685364 -1.582373 1.692917
v 0.794987 -1.693149 1.692917
v 0.685364 -1.693149 1.692917
v 0.794987 -1.582373 1.540309
v 0.685364 -1.582373 1.540309
v 0.794987 -1.693149 1.540309
v 0.685364 -1.693149 1.540309
v 0.794987 -1.582373 1.322267
v 0.685364 -1.582373 1.322267
v 0.794987 -1.693149 1.322267
v 0.685364 -1.693149 1.322267
v 0.685364 -1.582373 4.202468
v 0.794987 -1.582373 4.202468
v 0.685364 -1.693149 4.202468
v 0.794987 -1.693149 4.202468
v 0.685364 -1.275366 4.759512
v 0.794987 -1.275366 4.759512
v 0.685364 -1.386142 4.759512
v 0.794987 -1.386142 4.759512
v 0.489824 -0.737313 1.692917
v 0.380200 -0.737313 1.692917
v 0.489824 -0.737313 1.540309
v 0.380200 -0.737313 1.540309
vt 0.226899 0.547841
vt 0.226899 0.539949
vt 0.224379 0.539949
vt 0.224379 0.547841
vt 0.221918 0.539953
vt 0.221918 0.547844
vt 0.219608 0.539959
vt 0.219608 0.547851
vt 0.217539 0.539968
vt 0.217539 0.547860
vt 0.197460 0.513539
vt 0.197460 0.521430
vt 0.199317 0.521397
vt 0.199317 0.513507
vt 0.201470 0.521373
vt 0.201470 0.513482
vt 0.203837 0.521356
vt 0.203837 0.513466
vt 0.206327 0.521349
vt 0.206327 0.513458
vt 0.208844 0.521351
vt 0.208844 0.513460
vt 0.211292 0.521362
vt 0.211292 0.513472
vt 0.213577 0.521382
vt 0.213577 0.513492
vt 0.215610 0.521411
vt 0.215610 0.513520
vt 0.217314 0.521446
vt 0.217314 0.513555
vt 0.479204 0.542044
vt 0.485498 0.541890
vt 0.484653 0.539760
vt 0.478359 0.539914
vt 0.484071 0.537408
vt 0.477778 0.537562
vt 0.483774 0.534926
vt 0.477481 0.535079
vt 0.483774 0.532407
vt 0.477481 0.532561
vt 0.484071 0.529950
vt 0.477778 0.530104
vt 0.484653 0.527648
vt 0.478359 0.527802
vt 0.485498 0.525590
vt 0.479204 0.525744
vt 0.466420 0.548296
vt 0.466420 0.540404
vt 0.464667 0.540386
vt 0.464667 0.548278
vt 0.462595 0.540372
vt 0.462595 0.548263
vt 0.460283 0.540362
vt 0.460283 0.548253
vt 0.457820 0.540356
vt 0.457820 0.548248
vt 0.455301 0.540356
vt 0.455301 0.548248
vt 0.452822 0.540360
vt 0.452822 0.548252
vt 0.450478 0.540370
vt 0.450478 0.548261
vt 0.448361 0.540383
vt 0.448361 0.548275
vt 0.235659 0.547868
vt 0.235659 0.539977
vt 0.233845 0.539966
vt 0.233845 0.547858
vt 0.231724 0.539957
vt 0.231724 0.547849
vt 0.457433 0.536164
vt 0.455579 0.536164
vt 0.229379 0.539952
vt 0.229379 0.547844
vt 0.423263 0.525456
vt 0.423263 0.527976
vt 0.423743 0.530444
vt 0.424685 0.532768
vt 0.426053 0.534856
vt 0.427795 0.536630
vt 0.429842 0.538020
vt 0.432117 0.538974
vt 0.434532 0.539454
vt 0.436995 0.539443
vt 0.439410 0.538941
vt 0.441685 0.537967
vt 0.443732 0.536558
vt 0.445474 0.534769
vt 0.446842 0.532668
vt 0.447784 0.530336
vt 0.448265 0.527863
vt 0.448265 0.525344
vt 0.447784 0.522875
vt 0.446842 0.520552
vt 0.445474 0.518464
vt 0.443732 0.516690
vt 0.441685 0.515300
vt 0.439410 0.514346
vt 0.436995 0.513865
vt 0.434532 0.513876
vt 0.432117 0.514379
vt 0.429842 0.515353
vt 0.427795 0.516762
vt 0.426053 0.518551
vt 0.424685 0.520652
vt 0.423743 0.522984
vt 0.202941 0.525656
vt 0.201357 0.525674
vt 0.201357 0.535162
vt 0.202941 0.535144
vt 0.222963 0.535746
vt 0.221264 0.535751
vt 0.486573 0.543717
vt 0.487837 0.545170
vt 0.492173 0.542135
vt 0.491243 0.541066
vt 0.486573 0.523855
vt 0.490452 0.527728
vt 0.491243 0.526452
vt 0.472537 0.519769
vt 0.472290 0.522276
vt 0.475841 0.522379
vt 0.476023 0.520535
vt 0.204683 0.525644
vt 0.206515 0.525639
vt 0.489184 0.534598
vt 0.489184 0.532745
vt 0.453755 0.536167
vt 0.472290 0.527289
vt 0.472537 0.529796
vt 0.476001 0.529003
vt 0.475819 0.527159
vt 0.490452 0.539722
vt 0.487837 0.522510
vt 0.492173 0.525462
vt 0.230179 0.535750
vt 0.228453 0.535746
vt 0.208367 0.525640
vt 0.489402 0.530936
vt 0.452031 0.536174
vt 0.472537 0.524783
vt 0.476001 0.525315
vt 0.489830 0.538155
vt 0.460946 0.536175
vt 0.459245 0.536168
vt 0.226628 0.535744
vt 0.224775 0.535744
vt 0.210168 0.525648
vt 0.489830 0.529243
vt 0.450473 0.536184
vt 0.489402 0.536425
vt 0.211849 0.525663
vt 0.472537 0.524783
vt 0.476023 0.524224
vt 0.509683 0.526242
vt 0.511486 0.526060
vt 0.510729 0.522510
vt 0.508250 0.522760
vt 0.497397 0.529058
vt 0.498019 0.527544
vt 0.204683 0.535132
vt 0.462471 0.536186
vt 0.463761 0.536199
vt 0.463761 0.526710
vt 0.462471 0.526697
vt 0.206515 0.535127
vt 0.460946 0.526686
vt 0.208367 0.535128
vt 0.459245 0.526679
vt 0.210168 0.535136
vt 0.457433 0.526675
vt 0.211849 0.535151
vt 0.455579 0.526675
vt 0.213346 0.525684
vt 0.213346 0.535172
vt 0.453755 0.526678
vt 0.214599 0.525710
vt 0.214599 0.535198
vt 0.452031 0.526685
vt 0.498019 0.539537
vt 0.497397 0.537970
vt 0.226628 0.526254
vt 0.224775 0.526255
vt 0.450473 0.526695
vt 0.496969 0.536240
vt 0.222963 0.526257
vt 0.231739 0.535756
vt 0.233074 0.535764
vt 0.233074 0.526275
vt 0.231739 0.526267
vt 0.496751 0.534413
vt 0.221264 0.526262
vt 0.230179 0.526260
vt 0.496751 0.532560
vt 0.219741 0.535758
vt 0.219741 0.526268
vt 0.228453 0.526256
vt 0.496969 0.530752
vt 0.199991 0.525698
vt 0.199991 0.535186
vt 0.215714 0.538675
vt 0.213656 0.538646
vt 0.213656 0.547865
vt 0.215714 0.547894
vt 0.509683 0.544794
vt 0.507950 0.544256
vt 0.505865 0.547537
vt 0.508250 0.548278
vt 0.507950 0.526780
vt 0.505865 0.523500
vt 0.511486 0.544976
vt 0.510729 0.548528
vt 0.506352 0.527654
vt 0.503668 0.524702
vt 0.457838 0.523086
vt 0.455288 0.523086
vt 0.504952 0.528830
vt 0.501742 0.526320
vt 0.452779 0.523090
vt 0.503803 0.530264
vt 0.500161 0.528291
vt 0.450407 0.523100
vt 0.502949 0.531899
vt 0.498986 0.530540
vt 0.226911 0.522679
vt 0.224361 0.522679
vt 0.448264 0.523113
vt 0.502423 0.533673
vt 0.498263 0.532980
vt 0.221870 0.522682
vt 0.397326 0.417568
vt 0.395494 0.417699
vt 0.394806 0.420651
vt 0.397326 0.420470
vt 0.502245 0.535518
vt 0.498019 0.535518
vt 0.219532 0.522689
vt 0.233941 0.522696
vt 0.231795 0.522687
vt 0.502423 0.537363
vt 0.498263 0.538056
vt 0.217438 0.522698
vt 0.229421 0.522681
vt 0.502949 0.539137
vt 0.498986 0.540497
vt 0.475388 0.531615
vt 0.475568 0.529796
vt 0.472539 0.529812
vt 0.472290 0.532315
vt 0.503803 0.540772
vt 0.500161 0.542746
vt 0.475568 0.533428
vt 0.472539 0.534808
vt 0.504952 0.542206
vt 0.501742 0.544717
vt 0.201402 0.538636
vt 0.203798 0.538620
vt 0.506352 0.543382
vt 0.503668 0.546335
vt 0.206318 0.538612
vt 0.397396 0.525534
vt 0.397396 0.528084
vt 0.397893 0.530586
vt 0.398868 0.532942
vt 0.400283 0.535063
vt 0.402085 0.536866
vt 0.404203 0.538283
vt 0.406557 0.539260
vt 0.409056 0.539758
vt 0.411603 0.539758
vt 0.414102 0.539261
vt 0.416456 0.538286
vt 0.418574 0.536869
vt 0.420375 0.535066
vt 0.421791 0.532946
vt 0.422766 0.530590
vt 0.423263 0.528089
vt 0.423263 0.525539
vt 0.422766 0.523038
vt 0.421791 0.520682
vt 0.420375 0.518561
vt 0.418574 0.516757
vt 0.416456 0.515340
vt 0.414102 0.514364
vt 0.411603 0.513866
vt 0.409056 0.513865
vt 0.406557 0.514362
vt 0.404203 0.515338
vt 0.402085 0.516754
vt 0.400283 0.518557
vt 0.398868 0.520677
vt 0.397893 0.523033
vt 0.455288 0.513865
vt 0.452779 0.513870
vt 0.217438 0.538711
vt 0.217438 0.547930
vt 0.450407 0.513879
vt 0.424152 0.553975
vt 0.425007 0.556131
vt 0.432359 0.555951
vt 0.431505 0.553795
vt 0.226911 0.513458
vt 0.224361 0.513458
vt 0.448264 0.513893
vt 0.423563 0.551595
vt 0.430916 0.551415
vt 0.221870 0.513462
vt 0.235777 0.522707
vt 0.235777 0.513486
vt 0.233941 0.513475
vt 0.423263 0.549082
vt 0.430616 0.548903
vt 0.219532 0.513468
vt 0.231795 0.513467
vt 0.423263 0.546534
vt 0.430616 0.546354
vt 0.217438 0.513477
vt 0.229421 0.513461
vt 0.423563 0.544047
vt 0.430916 0.543867
vt 0.199223 0.538662
vt 0.197345 0.538694
vt 0.197345 0.547913
vt 0.199223 0.547881
vt 0.424152 0.541717
vt 0.431505 0.541537
vt 0.201402 0.547855
vt 0.425007 0.539634
vt 0.432359 0.539454
vt 0.203798 0.547839
vt 0.464768 0.523116
vt 0.466542 0.523134
vt 0.466542 0.513914
vt 0.464768 0.513896
vt 0.206318 0.547831
vt 0.462671 0.523102
vt 0.462671 0.513881
vt 0.208866 0.538615
vt 0.208866 0.547834
vt 0.460331 0.523091
vt 0.460331 0.513871
vt 0.211344 0.538626
vt 0.211344 0.547845
vt 0.457838 0.513866
vt 0.390099 0.678217
vt 0.394806 0.678521
vt 0.392318 0.671486
vt 0.387611 0.671183
vt 0.594364 0.187176
vt 0.614758 0.208609
vt 0.617375 0.199554
vt 0.603539 0.185012
vt 0.573423 0.207101
vt 0.586451 0.184881
vt 0.571566 0.199042
vt 0.199006 0.184592
vt 0.219600 0.205832
vt 0.222262 0.196626
vt 0.208290 0.182215
vt 0.593816 0.228534
vt 0.177788 0.205166
vt 0.198381 0.226405
vt 0.639515 0.663895
vt 0.645427 0.663904
vt 0.645515 0.414290
vt 0.645059 0.414266
vt 0.645563 0.672651
vt 0.651476 0.672644
vt 0.651428 0.663827
vt 0.645515 0.663834
vt 0.570806 0.216156
vt 0.584642 0.230697
vt 0.651476 0.414266
vt 0.651016 0.414314
vt 0.651476 0.673283
vt 0.657388 0.673227
vt 0.657388 0.664648
vt 0.651476 0.664704
vt 0.639603 0.671948
vt 0.645515 0.671957
vt 0.663300 0.414266
vt 0.657388 0.414309
vt 0.657388 0.422042
vt 0.663300 0.421998
vt 0.175125 0.214372
vt 0.189097 0.228783
vt 0.395428 0.428739
vt 0.395961 0.428622
vt 0.395961 0.420651
vt 0.395428 0.420768
vt 0.394806 0.429181
vt 0.395428 0.429183
vt 0.395428 0.420653
vt 0.394806 0.420651
vt 0.397396 0.017557
vt 0.392784 0.013169
vt 0.790912 0.025321
vt 0.785602 0.021472
vt 0.658774 0.669993
vt 0.659249 0.670036
vt 0.399010 0.388788
vt 0.402513 0.394233
vt 0.654967 0.414266
vt 0.654489 0.414293
vt 0.000322 0.393065
vt 0.004630 0.397871
vt 0.394806 0.410768
vt 0.394572 0.410709
vt 0.401755 0.000000
vt 0.397396 0.004148
vt 0.601773 0.230788
vt 0.616657 0.216627
vt 0.627690 0.680838
vt 0.633603 0.680842
vt 0.633499 0.674088
vt 0.627585 0.674083
vt 0.627585 0.414266
vt 0.622869 0.414296
vt 0.620476 0.421664
vt 0.625192 0.421634
vt 0.206401 0.228545
vt 0.221482 0.213922
vt 0.633603 0.682844
vt 0.639515 0.682751
vt 0.639515 0.675314
vt 0.633603 0.675406
vt 0.190978 0.182462
vt 0.175897 0.197084
vt 0.395948 0.417539
vt 0.397090 0.417547
vt 0.397090 0.410716
vt 0.395948 0.410709
vt 0.395948 0.410711
vt 0.394806 0.410709
vt 0.394806 0.417566
vt 0.395948 0.417568
vt 0.787941 0.414266
vt 0.790912 0.411440
vt 0.633603 0.414327
vt 0.632735 0.414266
vt 0.626445 0.682927
vt 0.627585 0.682877
vt 0.393829 0.410709
vt 0.397396 0.407249
vt 0.635226 0.414266
vt 0.634368 0.414340
vt 0.003859 0.000000
vt 0.000000 0.003741
vt 0.229432 0.456413
vt 0.156509 0.456413
vt 0.186002 0.502117
vt 0.200793 0.502117
vt 0.200301 0.513458
vt 0.185511 0.513458
vt 0.094253 0.410709
vt 0.037250 0.410769
vt 0.005484 0.443287
vt 0.104156 0.442904
vt 0.993074 0.557416
vt 0.902050 0.557419
vt 0.940161 0.591913
vt 0.954967 0.591913
vt 0.885047 0.578164
vt 0.827825 0.579632
vt 0.858976 0.615469
vt 0.874422 0.613439
vt 0.477481 0.513864
vt 0.477481 0.414266
vt 0.397396 0.414267
vt 0.397396 0.513865
vt 0.181316 0.513458
vt 0.181316 0.612951
vt 0.181824 0.592150
vt 0.181824 0.534278
vt 0.796396 0.544677
vt 0.895121 0.544627
vt 0.895121 0.454092
vt 0.790912 0.464581
vt 0.000000 0.522983
vt 0.104156 0.532986
vt 0.895121 0.522924
vt 1.000000 0.522921
vt 1.000000 0.433882
vt 0.895121 0.433886
vt 0.822252 0.338872
vt 0.870393 0.336705
vt 0.815463 0.005578
vt 0.808866 0.005349
vt 0.032105 0.653240
vt 0.080252 0.655404
vt 0.966885 0.321214
vt 0.928244 0.321215
vt 0.025636 0.987056
vt 0.019038 0.987282
vt 0.019038 0.992605
vt 0.025636 0.992378
vt 0.954004 0.005260
vt 0.941141 0.005261
vt 0.104156 0.750470
vt 0.142797 0.750470
vt 0.129904 0.416065
vt 0.117041 0.416065
vt 0.432359 0.552277
vt 0.438953 0.552304
vt 0.438953 0.539482
vt 0.432359 0.539454
vt 0.954004 0.000000
vt 0.941141 0.000000
vt 0.129904 0.410709
vt 0.117041 0.410709
vt 0.815463 0.000229
vt 0.808866 0.000000
vt 0.145935 0.502132
vt 0.242290 0.410709
vt 0.142797 0.410709
vt 0.579996 0.544566
vt 0.579996 0.414266
vt 0.535415 0.435392
vt 0.565789 0.538301
vt 0.600236 0.548094
vt 0.600236 0.416252
vt 0.592401 0.414266
vt 0.579996 0.543161
vt 0.620476 0.546111
vt 0.620476 0.414266
vt 0.600236 0.419201
vt 0.612641 0.548098
vt 0.181316 0.513458
vt 0.142797 0.513458
vt 0.150843 0.513986
vt 0.173248 0.513986
vt 0.477481 0.522510
vt 0.535415 0.522510
vt 0.517685 0.414266
vt 0.495208 0.414266
vt 0.197345 0.592124
vt 0.197345 0.534252
vt 0.387611 0.543428
vt 0.387611 0.410709
vt 0.373421 0.416941
vt 0.342991 0.522389
vt 0.151550 0.562533
vt 0.173956 0.562533
vt 0.522178 0.523304
vt 0.522178 0.551293
vt 0.527853 0.550499
vt 0.527853 0.522510
vt 0.275887 0.486748
vt 0.248098 0.486935
vt 0.248098 0.494878
vt 0.275886 0.494691
vt 0.527853 0.522510
vt 0.527853 0.544828
vt 0.533538 0.545633
vt 0.533538 0.523315
vt 0.522178 0.563008
vt 0.522178 0.524723
vt 0.516879 0.522510
vt 0.516879 0.560795
vt 0.403145 0.547705
vt 0.408893 0.547705
vt 0.408893 0.539758
vt 0.403145 0.539758
vt 0.235779 0.590459
vt 0.241528 0.590459
vt 0.241526 0.543364
vt 0.235777 0.543364
vt 0.669050 0.508004
vt 0.663301 0.508004
vt 0.663301 0.515777
vt 0.669050 0.515777
vt 0.669051 0.433257
vt 0.663302 0.433257
vt 0.242290 0.486929
vt 0.242290 0.494872
vt 0.298517 0.513925
vt 0.298517 0.506022
vt 0.292709 0.506028
vt 0.292709 0.513931
vt 0.248098 0.571262
vt 0.242290 0.571256
vt 0.242290 0.579247
vt 0.248098 0.579253
vt 0.472290 0.513865
vt 0.466542 0.513865
vt 0.466542 0.590290
vt 0.472290 0.590290
vt 0.298517 0.430019
vt 0.292709 0.430026
vt 0.292709 0.422075
vt 0.298517 0.422068
vt 0.298517 0.410709
vt 0.292709 0.410716
vt 0.342991 0.431793
vt 0.342991 0.423842
vt 0.669051 0.425438
vt 0.663302 0.425438
vt 0.408893 0.545567
vt 0.414624 0.545570
vt 0.414624 0.539761
vt 0.408893 0.539758
vt 0.669051 0.414266
vt 0.663302 0.414266
vt 0.242290 0.590663
vt 0.248098 0.590669
vt 0.444701 0.539454
vt 0.438953 0.539454
vt 0.438953 0.550877
vt 0.444701 0.550877
vt 0.298517 0.560760
vt 0.292709 0.560767
vt 0.308807 0.589769
vt 0.314616 0.589762
vt 0.248098 0.439864
vt 0.242290 0.439858
vt 0.663300 0.561838
vt 0.669049 0.561838
vt 0.476921 0.519769
vt 0.476921 0.514027
vt 0.472291 0.513865
vt 0.472291 0.519608
vt 0.241528 0.513458
vt 0.235779 0.513458
vt 0.264194 0.410715
vt 0.258387 0.410709
vt 0.663302 0.593808
vt 0.669051 0.593808
vt 0.511486 0.524449
vt 0.511486 0.571538
vt 0.516879 0.569600
vt 0.516879 0.522510
vt 0.292709 0.578414
vt 0.292709 0.570424
vt 0.403145 0.539758
vt 0.397396 0.539758
vt 0.397396 0.547753
vt 0.403145 0.547753
vt 0.326274 0.506435
vt 0.326274 0.514338
vn 0.0980 0.0000 -0.9952
vn 0.2903 0.0000 -0.9569
vn 0.4714 0.0000 -0.8819
vn 0.6344 0.0000 -0.7730
vn 0.7730 0.0000 -0.6344
vn 0.8819 0.0000 -0.4714
vn 0.9569 0.0000 -0.2903
vn 0.9952 0.0000 -0.0980
vn 0.9952 0.0000 0.0980
vn 0.9569 0.0000 0.2903
vn 0.8819 0.0000 0.4714
vn 0.7730 0.0000 0.6344
vn 0.6344 0.0000 0.7730
vn 0.4714 0.0000 0.8819
vn 0.2903 0.0000 0.9569
vn 0.0980 0.0000 0.9952
vn -0.0980 0.0000 0.9952
vn -0.2903 0.0000 0.9569
vn -0.4714 0.0000 0.8819
vn -0.6344 0.0000 0.7730
vn -0.7730 0.0000 0.6344
vn -0.8819 0.0000 0.4714
vn -0.9569 0.0000 0.2903
vn -0.9952 0.0000 0.0980
vn -0.9952 0.0000 -0.0980
vn -0.9569 0.0000 -0.2903
vn -0.8819 0.0000 -0.4714
vn -0.7730 0.0000 -0.6344
vn -0.6344 0.0000 -0.7730
vn -0.4714 0.0000 -0.8819
vn -0.7772 0.6245 -0.0766
vn -0.2903 0.0000 -0.9569
vn -0.0980 0.0000 -0.9952
vn 0.0000 -1.0000 -0.0000
vn 0.3682 0.6245 -0.6888
vn 0.6037 0.6245 0.4955
vn -0.6037 0.6245 0.4955
vn -0.3682 0.6245 -0.6888
vn 0.7772 0.6245 -0.0766
vn -0.0766 0.6245 0.7772
vn -0.7474 0.6245 -0.2267
vn 0.4955 0.6245 -0.6037
vn 0.4955 0.6245 0.6037
vn -0.6888 0.6245 0.3682
vn -0.2267 0.6245 -0.7474
vn 0.7772 0.6245 0.0766
vn -0.2267 0.6245 0.7474
vn -0.6888 0.6245 -0.3682
vn 0.6037 0.6245 -0.4955
vn 0.3682 0.6245 0.6888
vn -0.7474 0.6245 0.2267
vn 0.0766 0.6245 -0.7772
vn -0.0766 0.6245 -0.7772
vn 0.7474 0.6245 0.2267
vn -0.3682 0.6245 0.6888
vn -0.6037 0.6245 -0.4955
vn 0.6888 0.6245 -0.3682
vn 0.2267 0.6245 0.7474
vn -0.7772 0.6245 0.0766
vn 0.2267 0.6245 -0.7474
vn 0.6888 0.6245 0.3682
vn -0.4955 0.6245 0.6037
vn -0.4955 0.6245 -0.6037
vn 0.7474 0.6245 -0.2267
vn 0.0766 0.6245 0.7772
vn 0.7057 -0.7051 0.0695
vn -0.6786 -0.7051 0.2058
vn 0.6786 -0.7051 0.2058
vn -0.7057 -0.7051 0.0695
vn 0.6254 -0.7051 0.3343
vn -0.7057 -0.7051 -0.0695
vn 0.5481 -0.7051 0.4498
vn -0.6785 -0.7051 -0.2058
vn 0.4498 -0.7051 0.5481
vn -0.6254 -0.7051 -0.3343
vn 0.3343 -0.7051 0.6254
vn 0.0695 -0.7051 -0.7057
vn -0.5481 -0.7051 -0.4498
vn 0.2058 -0.7051 0.6785
vn 0.2058 -0.7051 -0.6785
vn -0.4498 -0.7051 -0.5481
vn 0.0695 -0.7051 0.7057
vn 0.3343 -0.7051 -0.6254
vn -0.3343 -0.7051 -0.6254
vn -0.0695 -0.7051 0.7057
vn 0.4498 -0.7051 -0.5481
vn -0.2058 -0.7051 -0.6786
vn -0.2058 -0.7051 0.6785
vn 0.5481 -0.7051 -0.4498
vn -0.0695 -0.7051 -0.7057
vn -0.3343 -0.7051 0.6254
vn 0.6254 -0.7051 -0.3343
vn -0.4498 -0.7051 0.5481
vn 0.6786 -0.7051 -0.2058
vn -0.5481 -0.7051 0.4498
vn 0.7057 -0.7051 -0.0695
vn -0.6254 -0.7051 0.3343
vn 0.0000 1.0000 -0.0000
vn 0.5152 0.0000 0.8571
vn -0.0196 -0.9998 0.0000
vn 0.9975 -0.0652 -0.0266
vn -0.8684 0.0000 -0.4959
vn -0.9975 0.0652 -0.0266
vn 0.8684 0.0000 0.4959
vn 0.8684 0.0000 -0.4959
vn -0.8684 0.0000 0.4959
vn 0.0000 0.0000 1.0000
vn -0.0000 0.0000 -1.0000
vn 0.2111 0.9774 -0.0105
vn 0.2068 -0.9783 0.0105
vn -0.9976 -0.0639 0.0264
vn -0.2111 -0.9774 -0.0105
vn 0.9976 0.0639 0.0264
vn -0.2068 0.9783 0.0105
vn 0.0292 -0.1100 0.9935
vn -0.0093 -0.9855 0.1693
vn 0.0196 -0.9998 0.0000
vn -0.5152 0.0000 -0.8571
vn -0.5152 0.0000 0.8571
vn -0.0196 0.9998 0.0000
vn 0.5152 0.0000 -0.8571
vn 0.0196 0.9998 0.0000
vn -1.0000 0.0000 0.0000
vn 1.0000 0.0000 0.0000
vn 0.0093 -0.9855 -0.1693
vn -0.0292 -0.1100 -0.9935
vn -0.0292 0.1100 0.9935
vn 0.0093 0.9855 0.1693
vn 0.0292 0.1100 -0.9935
vn -0.0093 0.9855 -0.1693
vn 0.0000 0.7503 0.6611
vn 0.0000 -0.1074 0.9942
vn -0.9492 0.0764 0.3051
vn 0.0000 -0.9507 0.3102
vn 0.6981 0.0738 0.7122
vn 0.0000 0.9990 0.0440
vn 0.0000 0.2658 0.9640
vn 0.9997 0.0260 0.0002
vn -0.9997 0.0260 0.0002
vn 0.0000 -0.9997 0.0242
vn 0.9993 0.0005 -0.0385
vn 0.9675 0.0315 -0.2511
vn -0.9675 0.0315 -0.2511
vn 0.0000 -0.9847 -0.1744
vn -0.9993 0.0005 -0.0385
vn 0.0000 -0.9904 -0.1385
vn 0.0000 0.9999 0.0151
vn 0.0000 -0.0579 -0.9983
vn 0.0000 0.9997 -0.0242
vn 0.9492 0.0764 0.3051
vn -0.6981 0.0738 0.7122
vn 0.9889 -0.0030 -0.1486
vn 0.0378 0.9615 -0.2723
vn -0.0378 0.9615 -0.2723
vn 0.0000 -0.2658 -0.9640
vn 0.0000 0.9999 0.0148
vn 0.0000 0.6321 0.7749
vn -0.9889 -0.0030 -0.1486
vn 0.0000 0.1740 -0.9848
vn 0.9902 0.1395 0.0000
vn -0.9406 -0.3396 0.0000
vn 0.0000 0.8758 -0.4827
vn 0.0000 -0.8758 0.4827
vn 0.9406 0.3396 0.0000
vn -0.9902 -0.1395 0.0000
usemtl Propeller
s off
f 1/1/1 2/2/1 4/3/1 3/4/1
f 3/4/2 4/3/2 6/5/2 5/6/2
f 5/6/3 6/5/3 8/7/3 7/8/3
f 7/8/4 8/7/4 10/9/4 9/10/4
f 9/11/5 10/12/5 12/13/5 11/14/5
f 11/14/6 12/13/6 14/15/6 13/16/6
f 13/16/7 14/15/7 16/17/7 15/18/7
f 15/18/8 16/17/8 18/19/8 17/20/8
f 17/20/9 18/19/9 20/21/9 19/22/9
f 19/22/10 20/21/10 22/23/10 21/24/10
f 21/24/11 22/23/11 24/25/11 23/26/11
f 23/26/12 24/25/12 26/27/12 25/28/12
f 25/28/13 26/27/13 28/29/13 27/30/13
f 27/31/14 28/32/14 30/33/14 29/34/14
f 29/34/15 30/33/15 32/35/15 31/36/15
f 31/36/16 32/35/16 34/37/16 33/38/16
f 33/38/17 34/37/17 36/39/17 35/40/17
f 35/40/18 36/39/18 38/41/18 37/42/18
f 37/42/19 38/41/19 40/43/19 39/44/19
f 39/44/20 40/43/20 42/45/20 41/46/20
f 41/47/21 42/48/21 44/49/21 43/50/21
f 43/50/22 44/49/22 46/51/22 45/52/22
f 45/52/23 46/51/23 48/53/23 47/54/23
f 47/54/24 48/53/24 50/55/24 49/56/24
f 49/56/25 50/55/25 52/57/25 51/58/25
f 51/58/26 52/57/26 54/59/26 53/60/26
f 53/60/27 54/59/27 56/61/27 55/62/27
f 55/62/28 56/61/28 58/63/28 57/64/28
f 57/65/29 58/66/29 60/67/29 59/68/29
f 59/68/30 60/67/30 62/69/30 61/70/30
f 52/57/31 50/55/31 89/71/31 90/72/31
f 61/70/32 62/69/32 64/73/32 63/74/32
f 63/74/33 64/73/33 2/2/33 1/1/33
f 1/75/34 3/76/34 5/77/34 7/78/34 9/79/34 11/80/34 13/81/34 15/82/34 17/83/34 19/84/34 21/85/34 23/86/34 25/87/34 27/88/34 29/89/34 31/90/34 33/91/34 35/92/34 37/93/34 39/94/34 41/95/34 43/96/34 45/97/34 47/98/34 49/99/34 51/100/34 53/101/34 55/102/34 57/103/34 59/104/34 61/105/34 63/106/34
f 71/107/6 70/108/6 102/109/6 103/110/6
f 8/7/35 6/5/35 67/111/35 68/112/35
f 26/113/36 24/114/36 76/115/36 77/116/36
f 44/117/37 42/45/37 85/118/37 86/119/37
f 62/120/38 60/121/38 94/122/38 95/123/38
f 18/19/39 16/17/39 72/124/39 73/125/39
f 36/39/40 34/37/40 81/126/40 82/127/40
f 54/59/41 52/57/41 90/72/41 91/128/41
f 10/129/42 8/130/42 68/131/42 69/132/42
f 28/32/43 26/113/43 77/116/43 78/133/43
f 46/134/44 44/117/44 86/119/44 87/135/44
f 64/73/45 62/69/45 95/136/45 96/137/45
f 20/21/46 18/19/46 73/125/46 74/138/46
f 38/41/47 36/39/47 82/127/47 83/139/47
f 56/61/48 54/59/48 91/128/48 92/140/48
f 12/141/49 10/129/49 69/132/49 70/142/49
f 30/33/50 28/32/50 78/133/50 79/143/50
f 48/53/51 46/51/51 87/144/51 88/145/51
f 4/3/52 2/2/52 66/146/52 65/147/52
f 2/2/53 64/73/53 96/137/53 66/146/53
f 22/23/54 20/21/54 74/138/54 75/148/54
f 40/43/55 38/41/55 83/139/55 84/149/55
f 58/63/56 56/61/56 92/140/56 93/150/56
f 14/15/57 12/13/57 70/108/57 71/107/57
f 32/35/58 30/33/58 79/143/58 80/151/58
f 50/55/59 48/53/59 88/145/59 89/71/59
f 6/5/60 4/3/60 65/147/60 67/111/60
f 24/25/61 22/23/61 75/148/61 76/152/61
f 42/45/62 40/43/62 84/149/62 85/118/62
f 60/121/63 58/153/63 93/154/63 94/122/63
f 16/17/64 14/15/64 71/107/64 72/124/64
f 34/37/65 32/35/65 80/151/65 81/126/65
f 106/155/66 105/156/66 137/157/66 138/158/66
f 85/118/20 84/149/20 116/159/20 117/160/20
f 72/124/7 71/107/7 103/110/7 104/161/7
f 86/162/21 85/163/21 117/164/21 118/165/21
f 73/125/8 72/124/8 104/161/8 105/166/8
f 87/144/22 86/162/22 118/165/22 119/167/22
f 74/138/9 73/125/9 105/166/9 106/168/9
f 88/145/23 87/144/23 119/167/23 120/169/23
f 75/148/10 74/138/10 106/168/10 107/170/10
f 89/71/24 88/145/24 120/169/24 121/171/24
f 76/152/11 75/148/11 107/170/11 108/172/11
f 90/72/25 89/71/25 121/171/25 122/173/25
f 77/174/12 76/152/12 108/172/12 109/175/12
f 91/128/26 90/72/26 122/173/26 123/176/26
f 78/177/13 77/174/13 109/175/13 110/178/13
f 92/140/27 91/128/27 123/176/27 124/179/27
f 79/143/14 78/133/14 110/180/14 111/181/14
f 65/147/1 66/146/1 98/182/1 97/183/1
f 93/150/28 92/140/28 124/179/28 125/184/28
f 80/151/15 79/143/15 111/181/15 112/185/15
f 67/111/2 65/147/2 97/183/2 99/186/2
f 94/187/29 93/188/29 125/189/29 126/190/29
f 81/126/16 80/151/16 112/185/16 113/191/16
f 68/112/3 67/111/3 99/186/3 100/192/3
f 95/136/30 94/187/30 126/190/30 127/193/30
f 82/127/17 81/126/17 113/191/17 114/194/17
f 69/195/4 68/112/4 100/192/4 101/196/4
f 96/137/32 95/136/32 127/193/32 128/197/32
f 83/139/18 82/127/18 114/194/18 115/198/18
f 70/108/5 69/199/5 101/200/5 102/109/5
f 66/146/33 96/137/33 128/197/33 98/182/33
f 84/149/19 83/139/19 115/198/19 116/159/19
f 141/201/12 140/202/12 172/203/12 173/204/12
f 120/205/67 119/206/67 151/207/67 152/208/67
f 107/209/68 106/155/68 138/158/68 139/210/68
f 121/211/69 120/205/69 152/208/69 153/212/69
f 108/213/70 107/209/70 139/210/70 140/214/70
f 122/173/71 121/171/71 153/215/71 154/216/71
f 109/217/72 108/213/72 140/214/72 141/218/72
f 123/176/73 122/173/73 154/216/73 155/219/73
f 110/220/74 109/217/74 141/218/74 142/221/74
f 124/179/75 123/176/75 155/219/75 156/222/75
f 111/223/76 110/220/76 142/221/76 143/224/76
f 97/183/77 98/182/77 130/225/77 129/226/77
f 125/184/78 124/179/78 156/222/78 157/227/78
f 112/228/79 111/223/79 143/224/79 144/229/79
f 99/186/80 97/183/80 129/226/80 131/230/80
f 126/231/81 125/232/81 157/233/81 158/234/81
f 113/235/82 112/228/82 144/229/82 145/236/82
f 100/192/83 99/186/83 131/230/83 132/237/83
f 127/193/84 126/190/84 158/238/84 159/239/84
f 114/240/85 113/235/85 145/236/85 146/241/85
f 101/196/86 100/192/86 132/237/86 133/242/86
f 128/197/87 127/193/87 159/239/87 160/243/87
f 115/244/88 114/240/88 146/241/88 147/245/88
f 102/246/89 101/247/89 133/248/89 134/249/89
f 98/182/90 128/197/90 160/243/90 130/225/90
f 116/250/91 115/244/91 147/245/91 148/251/91
f 103/252/92 102/246/92 134/249/92 135/253/92
f 117/254/93 116/250/93 148/251/93 149/255/93
f 104/161/94 103/110/94 135/256/94 136/257/94
f 118/258/95 117/254/95 149/255/95 150/259/95
f 105/166/96 104/161/96 136/257/96 137/260/96
f 119/206/97 118/258/97 150/259/97 151/207/97
f 161/261/98 162/262/98 192/263/98 191/264/98 190/265/98 189/266/98 188/267/98 187/268/98 186/269/98 185/270/98 184/271/98 183/272/98 182/273/98 181/274/98 180/275/98 179/276/98 178/277/98 177/278/98 176/279/98 175/280/98 174/281/98 173/282/98 172/283/98 171/284/98 170/285/98 169/286/98 168/287/98 167/288/98 166/289/98 165/290/98 164/291/98 163/292/98
f 155/219/26 154/216/26 186/293/26 187/294/26
f 142/295/13 141/201/13 173/204/13 174/296/13
f 156/222/27 155/219/27 187/294/27 188/297/27
f 143/298/14 142/299/14 174/300/14 175/301/14
f 129/226/1 130/225/1 162/302/1 161/303/1
f 157/227/28 156/222/28 188/297/28 189/304/28
f 144/305/15 143/298/15 175/301/15 176/306/15
f 131/230/2 129/226/2 161/303/2 163/307/2
f 158/238/29 157/308/29 189/309/29 190/310/29
f 145/311/16 144/305/16 176/306/16 177/312/16
f 132/237/3 131/230/3 163/307/3 164/313/3
f 159/239/30 158/238/30 190/310/30 191/314/30
f 146/315/17 145/311/17 177/312/17 178/316/17
f 133/242/4 132/237/4 164/313/4 165/317/4
f 160/243/32 159/239/32 191/314/32 192/318/32
f 147/319/18 146/315/18 178/316/18 179/320/18
f 134/321/5 133/322/5 165/323/5 166/324/5
f 130/225/33 160/243/33 192/318/33 162/302/33
f 148/325/19 147/319/19 179/320/19 180/326/19
f 135/256/6 134/321/6 166/324/6 167/327/6
f 149/328/20 148/325/20 180/326/20 181/329/20
f 136/257/7 135/256/7 167/327/7 168/330/7
f 150/331/21 149/332/21 181/333/21 182/334/21
f 137/260/8 136/257/8 168/330/8 169/335/8
f 151/336/22 150/331/22 182/334/22 183/337/22
f 138/338/9 137/260/9 169/335/9 170/339/9
f 152/340/23 151/336/23 183/337/23 184/341/23
f 139/342/10 138/338/10 170/339/10 171/343/10
f 153/215/24 152/340/24 184/341/24 185/344/24
f 140/202/11 139/342/11 171/343/11 172/203/11
f 154/216/25 153/215/25 185/344/25 186/293/25
f 198/345/99 197/346/99 223/347/99 224/348/99
f 193/349/34 197/350/34 205/351/34 204/352/34
f 195/353/100 193/349/100 218/354/100 217/355/100
f 196/356/98 200/357/98 207/358/98 202/359/98
f 195/353/34 199/360/34 197/350/34 193/349/34
f 200/357/98 196/356/98 194/361/98 198/362/98
f 207/363/101 208/364/101 211/365/101 210/366/101
f 195/367/102 196/368/102 202/369/102 201/370/102
f 199/360/34 195/353/34 201/371/34 208/372/34
f 201/370/103 202/369/103 209/373/103 212/374/103
f 197/375/104 198/376/104 206/377/104 205/378/104
f 200/379/105 199/380/105 208/364/105 207/363/105
f 194/381/106 193/382/106 204/383/106 203/384/106
f 198/362/98 194/361/98 203/385/98 206/386/98
f 216/387/107 215/388/107 214/389/107 213/390/107
f 212/391/108 209/392/108 210/393/108 211/394/108
f 202/359/109 207/358/109 210/395/109 209/396/109
f 204/352/110 205/351/110 216/397/110 213/398/110
f 203/384/111 204/383/111 213/399/111 214/400/111
f 208/372/112 201/371/112 212/401/112 211/402/112
f 205/378/113 206/377/113 215/403/113 216/404/113
f 206/386/114 203/385/114 214/405/114 215/406/114
f 224/348/115 223/347/115 231/407/115 232/408/115
f 217/355/116 218/354/116 226/409/116 225/410/116
f 197/350/117 199/360/117 222/411/117 223/412/117
f 196/413/118 195/414/118 217/415/118 220/416/118
f 193/417/119 194/418/119 219/419/119 218/420/119
f 200/357/120 198/362/120 224/421/120 221/422/120
f 199/423/121 200/424/121 221/425/121 222/426/121
f 194/361/122 196/356/122 220/427/122 219/428/122
f 226/429/123 227/430/123 228/431/123 225/432/123
f 230/433/124 229/434/124 232/435/124 231/436/124
f 223/412/125 222/411/125 230/437/125 231/438/125
f 220/416/126 217/415/126 225/439/126 228/440/126
f 218/420/127 219/419/127 227/441/127 226/442/127
f 221/422/128 224/421/128 232/443/128 229/444/128
f 222/426/129 221/425/129 229/445/129 230/446/129
f 219/428/130 220/427/130 228/447/130 227/448/130
usemtl Body
f 258/449/131 259/450/131 239/451/131 235/452/131
f 236/453/132 235/452/132 239/451/132 240/454/132
f 257/455/133 259/456/133 237/457/133 238/458/133
f 257/459/134 260/460/134 236/461/134 240/462/134
f 260/463/135 258/464/135 235/465/135 236/466/135
f 237/467/136 233/468/136 241/469/136 243/470/136
f 243/471/137 241/472/137 262/473/137 261/474/137
f 233/475/138 234/476/138 242/477/138 241/478/138
f 238/458/139 237/457/139 243/479/139 244/480/139
f 234/481/140 238/482/140 244/483/140 242/484/140
f 245/485/141 246/486/141 250/487/141 249/488/141
f 241/478/142 242/477/142 246/486/142 245/485/142
f 244/480/143 243/479/143 247/489/143 248/490/143
f 242/484/144 244/483/144 248/491/144 246/492/144
f 252/493/123 251/494/123 255/495/123 256/496/123
f 248/490/145 247/489/145 251/494/145 252/493/145
f 246/492/146 248/491/146 252/497/146 250/498/146
f 247/499/147 245/500/147 249/501/147 251/502/147
f 256/503/148 255/504/148 253/505/148 254/506/148
f 250/498/140 252/497/140 256/507/140 254/508/140
f 251/502/149 249/501/149 253/509/149 255/510/149
f 249/488/124 250/487/124 254/511/124 253/512/124
f 234/476/150 233/475/150 258/464/150 260/463/150
f 238/482/134 234/481/134 260/460/134 257/459/134
f 240/454/151 239/451/151 259/450/151 257/513/151
f 233/514/131 237/515/131 259/450/131 258/449/131
f 262/516/152 264/517/152 268/518/152 266/519/152
f 241/520/153 245/521/153 264/522/153 262/523/153
f 247/524/154 243/525/154 261/526/154 263/527/154
f 245/528/155 247/529/155 263/530/155 264/531/155
f 265/532/156 266/533/156 268/534/156 267/535/156
f 261/474/157 262/473/157 266/536/157 265/537/157
f 263/538/158 261/539/158 265/540/158 267/541/158
f 264/531/159 263/530/159 267/542/159 268/543/159
usemtl legs
f 272/544/108 275/545/108 273/546/108 270/547/108
f 271/548/160 276/549/160 275/550/160 272/551/160
f 269/552/107 274/553/107 276/554/107 271/555/107
f 281/556/107 301/557/107 302/558/107 282/559/107
f 272/560/98 270/561/98 269/562/98 271/563/98
f 276/564/98 274/565/98 293/566/98 294/567/98
f 277/568/34 279/569/34 280/570/34 278/571/34
f 279/569/34 277/568/34 284/572/34 283/573/34
f 275/550/124 276/549/124 280/574/124 279/575/124
f 274/576/123 273/577/123 277/578/123 278/579/123
f 281/580/124 283/581/124 287/582/124 285/583/124
f 275/550/124 279/575/124 283/581/124 281/580/124
f 273/584/98 275/585/98 281/586/98 282/587/98
f 277/578/123 273/577/123 282/588/123 284/589/123
f 288/590/123 286/591/123 290/592/123 292/593/123
f 282/588/161 302/594/161 304/595/161 286/591/161
f 284/589/123 282/588/123 286/591/123 288/590/123
f 283/573/34 284/572/34 288/596/34 287/597/34
f 290/598/108 289/599/108 291/600/108 292/601/108
f 287/597/34 288/596/34 292/602/34 291/603/34
f 285/583/124 287/582/124 291/604/124 289/605/124
f 286/606/98 285/607/98 289/608/98 290/609/98
f 293/610/123 295/611/123 299/612/123 297/613/123
f 274/576/123 278/579/123 295/611/123 293/610/123
f 280/574/124 276/549/124 294/614/124 296/615/124
f 278/571/34 280/570/34 296/616/34 295/617/34
f 298/618/107 297/619/107 299/620/107 300/621/107
f 294/567/162 293/566/162 297/622/162 298/623/162
f 296/615/124 294/614/124 298/624/124 300/625/124
f 295/617/163 296/616/163 300/626/163 299/627/163
f 286/628/108 304/629/108 303/630/108 285/631/108
f 285/583/164 303/632/164 301/633/164 281/580/164
f 302/634/98 301/635/98 303/636/98 304/637/98
f 270/638/165 273/577/165 274/576/165 269/639/165
